M48
INCH,TZ
T10C0.039
T11C0.041
T12C0.043
T13C0.120
T14C0.157
T15C0.197
T16C0.251
T17C0.020
T18C0.030
T19C0.059
T20C0.067
%
T10
X033980Y-13140
X033980Y-15110
X013147Y-58852
X013569Y-59758
X015866Y-57584
X016288Y-58490
X016316Y-65649
X016738Y-66555
X019035Y-64381
X019457Y-65287
X019486Y-72447
X019908Y-73353
X019944Y-55683
X020366Y-56589
X021001Y-57948
X022205Y-71179
X022627Y-72085
X022663Y-54415
X023085Y-55321
X023719Y-56680
X026391Y-61227
X027000Y-27630
X027000Y-28630
X027297Y-60805
X027659Y-63946
X027798Y-54778
X028000Y-27630
X028565Y-63524
X029000Y-27630
X030000Y-27630
X030000Y-28630
X030500Y-33504
X030500Y-34504
X030500Y-35504
X030500Y-36504
X030500Y-44754
X030500Y-45754
X030500Y-46754
X030500Y-47754
X030516Y-53510
X031000Y-13750
X031000Y-14750
X031000Y-15750
X031500Y-33504
X031500Y-36504
X031500Y-44754
X031500Y-47754
X033188Y-58057
X033500Y-21875
X034094Y-57635
X034456Y-60776
X034500Y-27630
X034500Y-28630
X034500Y-35129
X034500Y-36129
X034500Y-42629
X034500Y-43629
X034500Y-50129
X034500Y-51129
X035362Y-60354
X037000Y-13750
X037000Y-14750
X037000Y-15750
X037500Y-27630
X037500Y-28630
X037500Y-35129
X037500Y-36129
X037500Y-42629
X037500Y-43629
X037500Y-50129
X037500Y-51129
X038836Y-14961
X040086Y-14461
X041664Y-17789
X042000Y-27129
X042000Y-28129
X042000Y-34629
X042000Y-35629
X042000Y-42129
X042000Y-43129
X042000Y-49629
X042000Y-50629
X042000Y-57129
X042000Y-58129
X042914Y-17289
X045000Y-27129
X045000Y-28129
X045000Y-34629
X045000Y-35629
X045000Y-42129
X045000Y-43129
X045000Y-49629
X045000Y-50629
X045000Y-57129
X045000Y-58129
X045875Y-20625
X047375Y-18500
X049500Y-26500
X049500Y-27500
X049500Y-34000
X049500Y-35000
X049500Y-41500
X049500Y-42500
X049500Y-49000
X049500Y-50000
X049500Y-56500
X049500Y-57500
X051375Y-18500
X051940Y-13550
X052500Y-26500
X052500Y-27500
X052500Y-34000
X052500Y-35000
X052500Y-41500
X052500Y-42500
X052500Y-49000
X052500Y-50000
X052500Y-56500
X052500Y-57500
X053240Y-15850
X054190Y-15850
X055140Y-15850
X056440Y-13550
X056461Y-18539
X057000Y-27129
X057000Y-28129
X057000Y-34629
X057000Y-35629
X057000Y-42129
X057000Y-43129
X057000Y-49629
X057000Y-50629
X057000Y-57129
X057000Y-58129
X057211Y-19289
X059289Y-15711
X060000Y-27129
X060000Y-28129
X060000Y-34629
X060000Y-35629
X060000Y-42129
X060000Y-43129
X060000Y-49629
X060000Y-50629
X060000Y-57129
X060000Y-58129
X060039Y-16461
X060500Y-14750
X063250Y-59375
X064500Y-28380
X064500Y-29380
X064500Y-35879
X064500Y-36879
X064500Y-43379
X064500Y-44379
X064500Y-50879
X064500Y-51879
X064500Y-58379
X064500Y-59379
X066000Y-58900
X067500Y-28380
X067500Y-29380
X067500Y-35879
X067500Y-36879
X067500Y-43379
X067500Y-44379
X067500Y-50879
X067500Y-51879
X067500Y-58379
X067500Y-59379
X072000Y-58379
X072000Y-59379
X073875Y-28380
X073875Y-29380
X073875Y-35879
X073875Y-36879
X073875Y-43379
X073875Y-44379
X073875Y-50879
X073875Y-51879
X075000Y-58379
X075000Y-59379
X076875Y-28380
X076875Y-29380
X076875Y-35879
X076875Y-36879
X076875Y-43379
X076875Y-44379
X076875Y-50879
X076875Y-51879
T11
X078909Y-17012
X080091Y-17012
T12
X072750Y-17750
X073750Y-17750
X074750Y-17750
X074750Y-13750
X032560Y-15110
X033350Y-16330
X034610Y-16330
X035400Y-15110
X063750Y-13750
X063750Y-14750
X063750Y-17750
X063750Y-19750
X064750Y-13750
X064750Y-14750
X064750Y-17750
X064750Y-19750
X065750Y-13750
X065750Y-14750
X065750Y-17750
X065750Y-19750
X066750Y-13750
X066750Y-14750
X066750Y-17750
X066750Y-19750
X067750Y-13750
X067750Y-14750
X067750Y-17750
X067750Y-19750
X068750Y-13750
X068750Y-14750
X068750Y-17750
X068750Y-19750
X069750Y-13750
X069750Y-14750
X069750Y-17750
X069750Y-19750
X070750Y-13750
X070750Y-14750
X070750Y-17750
X070750Y-19750
X071750Y-13750
X071750Y-14750
X071750Y-17750
X071750Y-19750
X072750Y-13750
X072750Y-14750
X072750Y-19750
X073750Y-13750
X073750Y-14750
X073750Y-19750
X074750Y-14750
X074750Y-16750
X074750Y-17750
X074750Y-18750
X074750Y-19750
X075750Y-14750
X075750Y-17750
X076750Y-14750
X076750Y-17750
X032210Y-13140
X035870Y-13140
T13
X025718Y-58010
X027530Y-57165
X029691Y-66529
X031503Y-65684
T14
X013661Y-56405
X016830Y-63202
X020000Y-70000
X020280Y-60546
X020458Y-53236
X023628Y-60033
X024253Y-69065
X025212Y-63432
X026797Y-66830
X028500Y-25630
X028500Y-35004
X028500Y-46254
X030425Y-56863
X032009Y-60262
X032968Y-54629
X033595Y-63661
X036000Y-25630
X036000Y-33129
X036000Y-40629
X036000Y-48129
X036941Y-63148
X043500Y-25129
X043500Y-32629
X043500Y-40129
X043500Y-47629
X043500Y-55129
X051000Y-24500
X051000Y-32000
X051000Y-39500
X051000Y-47000
X051000Y-54500
X058500Y-25129
X058500Y-32629
X058500Y-40129
X058500Y-47629
X058500Y-55129
X066000Y-26380
X066000Y-33879
X066000Y-41379
X066000Y-48879
X066000Y-56379
X073500Y-56379
X073499Y-26380
X073499Y-33879
X073499Y-41379
X073499Y-48879
T15
X079500Y-25358
T16
X021220Y-65290
X023490Y-47900
X026540Y-14620
X041510Y-62110
X046540Y-14620
X054740Y-36060
X079190Y-14620
X079440Y-55140
T17
X068625Y-21250
X073896Y-22519
X073898Y-20984
X075787Y-21791
X075841Y-22259
X075852Y-21352
X076902Y-20689
X077209Y-20539
X077492Y-20390
X077750Y-21000
X078055Y-21071
X078228Y-16929
X078228Y-17283
X078228Y-17638
X078366Y-18311
X078366Y-21787
X078661Y-18579
X078661Y-21815
X079067Y-19665
X079067Y-21736
X079717Y-20008
T18
X014053Y-58429
X014959Y-58006
X017222Y-65226
X018128Y-64803
X020392Y-72024
X020850Y-55260
X021298Y-71601
X021756Y-54837
X026813Y-62134
X027236Y-63040
X033610Y-58964
X034033Y-59870
X035500Y-27630
X035500Y-35129
X035500Y-42629
X035500Y-50129
X036500Y-27630
X036500Y-35129
X036500Y-42629
X036500Y-50129
X043000Y-27129
X043000Y-34629
X043000Y-42129
X043000Y-49629
X043000Y-57129
X044000Y-27129
X044000Y-34629
X044000Y-42129
X044000Y-49629
X044000Y-57129
X050500Y-26500
X050500Y-34000
X050500Y-41500
X050500Y-49000
X050500Y-56500
X051500Y-26500
X051500Y-34000
X051500Y-41500
X051500Y-49000
X051500Y-56500
X058000Y-27129
X058000Y-34629
X058000Y-42129
X058000Y-49629
X058000Y-57129
X059000Y-27129
X059000Y-34629
X059000Y-42129
X059000Y-49629
X059000Y-57129
X065500Y-28380
X065500Y-35879
X065500Y-43379
X065500Y-50879
X065500Y-58379
X066500Y-28380
X066500Y-35879
X066500Y-43379
X066500Y-50879
X066500Y-58379
X073000Y-58379
X074000Y-58379
X074875Y-28380
X074875Y-35879
X074875Y-43379
X074875Y-50879
X075875Y-28380
X075875Y-35879
X075875Y-43379
X075875Y-50879
X053560Y-14677
X053875Y-14205
X054190Y-14677
X054505Y-14205
X054820Y-14677
X052754Y-12464
X055626Y-12464
T19
X011879Y-56133
X011909Y-55015
X013722Y-54170
X014598Y-54865
X015048Y-62930
X015078Y-61812
X016891Y-60967
X017767Y-61662
X018218Y-69728
X018248Y-68610
X018676Y-52964
X018706Y-51846
X020061Y-67765
X020519Y-51001
X020937Y-68460
X021395Y-51696
X021846Y-59761
X021876Y-58643
X022977Y-63371
X023672Y-62495
X023689Y-57798
X023822Y-65184
X024565Y-58493
X024940Y-65214
X025860Y-68370
X026500Y-34004
X026500Y-36004
X026500Y-45254
X026500Y-47254
X026736Y-69065
X027000Y-24630
X027500Y-23630
X027500Y-33504
X027500Y-36504
X027500Y-44754
X027500Y-47754
X028549Y-68220
X028579Y-67102
X028643Y-56591
X028673Y-55473
X029500Y-23630
X029774Y-60201
X030000Y-24630
X030469Y-59325
X030486Y-54628
X030619Y-62014
X031362Y-55323
X031737Y-62044
X032658Y-65201
X033534Y-65896
X034500Y-24630
X034500Y-32129
X034500Y-39629
X034500Y-47129
X035000Y-23630
X035000Y-31129
X035000Y-38629
X035000Y-46129
X035347Y-65051
X035377Y-63933
X037000Y-23630
X037000Y-31129
X037000Y-38629
X037000Y-46129
X037500Y-24630
X037500Y-32129
X037500Y-39629
X037500Y-47129
X042000Y-24129
X042000Y-31629
X042000Y-39129
X042000Y-46629
X042000Y-54129
X042500Y-23129
X042500Y-30629
X042500Y-38129
X042500Y-45629
X042500Y-53129
X044500Y-23129
X044500Y-30629
X044500Y-38129
X044500Y-45629
X044500Y-53129
X045000Y-24129
X045000Y-31629
X045000Y-39129
X045000Y-46629
X045000Y-54129
X049500Y-23500
X049500Y-31000
X049500Y-38500
X049500Y-46000
X049500Y-53500
X050000Y-22500
X050000Y-30000
X050000Y-37500
X050000Y-45000
X050000Y-52500
X052000Y-22500
X052000Y-30000
X052000Y-37500
X052000Y-45000
X052000Y-52500
X052500Y-23500
X052500Y-31000
X052500Y-38500
X052500Y-46000
X052500Y-53500
X057000Y-24129
X057000Y-31629
X057000Y-39129
X057000Y-46629
X057000Y-54129
X057500Y-23129
X057500Y-30629
X057500Y-38129
X057500Y-45629
X057500Y-53129
X059500Y-23129
X059500Y-30629
X059500Y-38129
X059500Y-45629
X059500Y-53129
X060000Y-24129
X060000Y-31629
X060000Y-39129
X060000Y-46629
X060000Y-54129
X064500Y-25380
X064500Y-32879
X064500Y-40379
X064500Y-47879
X064500Y-55379
X065000Y-24380
X065000Y-31879
X065000Y-39379
X065000Y-46879
X065000Y-54379
X067000Y-24380
X067000Y-31879
X067000Y-39379
X067000Y-46879
X067000Y-54379
X067500Y-25380
X067500Y-32879
X067500Y-40379
X067500Y-47879
X067500Y-55379
X071500Y-25130
X071500Y-27630
X071500Y-32629
X071500Y-35129
X071500Y-40129
X071500Y-42629
X071500Y-47629
X071500Y-50129
X072000Y-55379
X072500Y-24630
X072500Y-28130
X072500Y-32129
X072500Y-35629
X072500Y-39629
X072500Y-43129
X072500Y-47129
X072500Y-50629
X072500Y-54379
X073875Y-25380
X073875Y-32879
X073875Y-40379
X073875Y-47879
X074375Y-24380
X074375Y-31879
X074375Y-39379
X074375Y-46879
X074500Y-54379
X075000Y-55379
X076375Y-24380
X076375Y-31879
X076375Y-39379
X076375Y-46879
X076875Y-25380
X076875Y-32879
X076875Y-40379
X076875Y-47879
T20
X011848Y-57250
X015017Y-64047
X015474Y-55560
X018187Y-70845
X018643Y-62357
X018645Y-54081
X021813Y-69155
X021815Y-60878
X022271Y-52391
X024367Y-61619
X024984Y-67675
X025441Y-59188
X026057Y-65245
X026500Y-25630
X028500Y-33004
X028500Y-37004
X028500Y-44254
X028500Y-48254
X028610Y-65985
X028612Y-57708
X030500Y-25630
X031164Y-58449
X031782Y-64506
X032238Y-56018
X032854Y-62075
X034000Y-25630
X034000Y-33129
X034000Y-40629
X034000Y-48129
X035408Y-62816
X038000Y-25630
X038000Y-33129
X038000Y-40629
X038000Y-48129
X041500Y-25129
X041500Y-32629
X041500Y-40129
X041500Y-47629
X041500Y-55129
X045500Y-25129
X045500Y-32629
X045500Y-40129
X045500Y-47629
X045500Y-55129
X049000Y-24500
X049000Y-32000
X049000Y-39500
X049000Y-47000
X049000Y-54500
X053000Y-24500
X053000Y-32000
X053000Y-39500
X053000Y-47000
X053000Y-54500
X056500Y-25129
X056500Y-32629
X056500Y-40129
X056500Y-47629
X056500Y-55129
X060500Y-25129
X060500Y-32629
X060500Y-40129
X060500Y-47629
X060500Y-55129
X064000Y-26380
X064000Y-33879
X064000Y-41379
X064000Y-48879
X064000Y-56379
X068000Y-26380
X068000Y-33879
X068000Y-41379
X068000Y-48879
X068000Y-56379
X071500Y-56379
X075500Y-56379
X077375Y-26380
X077375Y-33879
X077375Y-41379
X077375Y-48879
M30

